# xmcd CD database file generated by Grip 3.2.0
# 
# Track frame offsets:
#       150
#       14262
#       41175
#       65332
#       80332
#       98037
#       108610
#       170525
# 
# Disc length: 2491 seconds
# 
# Revision: 5
# Processed by: cddbd v1.5.2PL0 Copyright (c) Steve Scherf et al.
# Submitted via: Grip 3.2.0
# 
DISCID=6109b908
DTITLE=Sly and The Family Stone - Stand!
DYEAR=1968
DGENRE=Funk
TTITLE0=Stand!
TTITLE1=Don't Call Me Nigger, Whitey
TTITLE2=I Want To Take You Higher
TTITLE3=Somebody's Watching You
TTITLE4=Sing A Simple Song
TTITLE5=Everyday People
TTITLE6=Sex Machine
TTITLE7=You Can Make It If You Try
EXTD=YEAR: 1968
EXTT0=
EXTT1=
EXTT2=
EXTT3=
EXTT4=
EXTT5=
EXTT6=
EXTT7=
PLAYORDER=
